<svg xmlns="http://www.w3.org/2000/svg" width="18.525" height="16.97" viewBox="0 0 18.525 16.97">
  <path id="Tracé_4112" data-name="Tracé 4112" d="M17.959,6.491a12.24,12.24,0,0,0-2.6-3.016l2.16-2.16A.772.772,0,0,0,16.427.224l-2.35,2.353a9.3,9.3,0,0,0-4.815-1.3,10.221,10.221,0,0,0-8.7,5.219,3.787,3.787,0,0,0,0,3.983,12.242,12.242,0,0,0,2.6,3.016l-2.16,2.16a.772.772,0,0,0,1.072,1.11l.019-.019,2.355-2.355a9.3,9.3,0,0,0,4.81,1.306,10.221,10.221,0,0,0,8.7-5.219A3.787,3.787,0,0,0,17.959,6.491ZM4.633,8.483a4.622,4.622,0,0,1,7.308-3.769l-1.12,1.12A3.045,3.045,0,0,0,9.262,5.4,3.086,3.086,0,0,0,6.176,8.483a3.046,3.046,0,0,0,.437,1.558l-1.12,1.12A4.6,4.6,0,0,1,4.633,8.483Zm4.63,4.63a4.6,4.6,0,0,1-2.678-.86l1.12-1.12a3.045,3.045,0,0,0,1.558.438,3.086,3.086,0,0,0,3.086-3.086,3.045,3.045,0,0,0-.437-1.558l1.12-1.12a4.622,4.622,0,0,1-3.769,7.308Z" transform="translate(0 -0.007)" fill="#9998b6"/>
</svg>
