<svg xmlns="http://www.w3.org/2000/svg" width="18.525" height="14.421" viewBox="0 0 18.525 14.421">
  <g id="Groupe_2382" data-name="Groupe 2382" transform="translate(0)">
    <path id="Tracé_4113" data-name="Tracé 4113" d="M123.088,13.174A3.086,3.086,0,1,0,120,10.088,3.086,3.086,0,0,0,123.088,13.174Z" transform="translate(-113.825 -2.877)" fill="#9998b6"/>
    <path id="Tracé_4114" data-name="Tracé 4114" d="M129.959,6.878a9.855,9.855,0,0,0-17.393,0,3.789,3.789,0,0,0,0,3.983,9.855,9.855,0,0,0,17.393,0A3.789,3.789,0,0,0,129.959,6.878Zm-8.7,6.621a4.63,4.63,0,1,1,4.63-4.63A4.63,4.63,0,0,1,121.263,13.5Z" transform="translate(-112 -1.659)" fill="#9998b6"/>
  </g>
</svg>
