<svg xmlns="http://www.w3.org/2000/svg" xmlns:xlink="http://www.w3.org/1999/xlink" preserveAspectRatio="xMidYMid meet" viewBox="0 0 640 430" width="150" height="100.78" xmlns:v="https://vecta.io/nano"><defs><path d="M320 4.38c-76.1 0-142.17 43.17-175.08 106.36C65.67 119.17 4.07 186.3 4.07 267.66c0 87.14 70.82 157.96 157.96 157.96H504.3c72.66 0 131.63-58.97 131.63-131.64 0-69.5-53.97-125.84-122.42-130.58C495.6 72.57 415.83 4.38 320 4.38zm-157.97 368.6c-58.18 0-105.3-47.13-105.3-105.3 0-53.98 40.28-99 93.73-104.53l28.17-2.9 13.16-25c25-48.18 73.98-78.2 128.22-78.2 68.98 0 128.48 48.97 141.9 116.64l7.9 39.5 40.28 2.9c41.07 2.64 73.2 37.13 73.2 77.93 0 43.44-35.54 79-78.98 79H162.03zm52.66-131.64h67.13v78.98h76.36v-78.98h67.13L320 136.02l-105.3 105.3z" id="A"/></defs><use xlink:href="#A" fill="#283579"/><use xlink:href="#A" fill-opacity="0" stroke="#000" stroke-opacity="0"/></svg>
