<svg xmlns="http://www.w3.org/2000/svg" width="19.827" height="19.827" viewBox="0 0 19.827 19.827">
  <g id="approv" transform="translate(-0.003 -1.086)">
    <g id="Groupe_1637" data-name="Groupe 1637" transform="translate(19.83 1.086) rotate(90)">
      <path id="Tracé_3879" data-name="Tracé 3879" d="M15.614,0H4.213A4.176,4.176,0,0,0,0,4.13V6.609a.826.826,0,1,0,1.652,0V4.13A2.523,2.523,0,0,1,4.213,1.652h11.4A2.523,2.523,0,0,1,18.175,4.13V15.7a2.523,2.523,0,0,1-2.561,2.478H4.213A2.523,2.523,0,0,1,1.652,15.7V13.218a.826.826,0,0,0-1.652,0V15.7a4.176,4.176,0,0,0,4.213,4.131h11.4A4.176,4.176,0,0,0,19.827,15.7V4.13A4.176,4.176,0,0,0,15.614,0Z" transform="translate(0 0)" fill="#fff"/>
      <path id="Tracé_3880" data-name="Tracé 3880" d="M3,10.784a.826.826,0,0,0,.826.826l10.895-.025L11.15,15.157a.826.826,0,1,0,1.168,1.168l3.789-3.789a2.478,2.478,0,0,0,0-3.5L12.32,5.243a.826.826,0,0,0-1.168,1.168l3.521,3.522L3.826,9.958A.826.826,0,0,0,3,10.784Z" transform="translate(-0.522 -0.871)" fill="#fff"/>
    </g>
  </g>
</svg>
