<svg id="case-a-cocher" xmlns="http://www.w3.org/2000/svg" width="16.667" height="16.667" viewBox="0 0 16.667 16.667">
  <path id="Tracé_3843" data-name="Tracé 3843" d="M13.195,0H3.472A3.476,3.476,0,0,0,0,3.472v9.722a3.476,3.476,0,0,0,3.472,3.472h9.722a3.476,3.476,0,0,0,3.472-3.472V3.472A3.476,3.476,0,0,0,13.195,0Zm2.083,13.195a2.083,2.083,0,0,1-2.083,2.083H3.472a2.083,2.083,0,0,1-2.083-2.083V3.472A2.083,2.083,0,0,1,3.472,1.389h9.722a2.083,2.083,0,0,1,2.083,2.083Z" fill="#3ac294"/>
  <path id="Tracé_3844" data-name="Tracé 3844" d="M7.614,13,4.893,10.281a.694.694,0,0,0-.982,0h0a.694.694,0,0,0,0,.982l2.722,2.722a1.389,1.389,0,0,0,1.965,0L15.022,7.56a.694.694,0,0,0,0-.982h0a.694.694,0,0,0-.982,0Z" transform="translate(-1.133 -1.948)" fill="#3ac294"/>
</svg>
