<svg xmlns="http://www.w3.org/2000/svg" width="19" height="23.998" viewBox="0 0 19 23.998">
  <path id="Tracé_3875" data-name="Tracé 3875" d="M8,12a1,1,0,0,1,0,2H5a1,1,0,0,1,0-2Zm6-3a1,1,0,0,0-1-1H5a1,1,0,1,0,0,2h8a1,1,0,0,0,1-1ZM5,6h8a1,1,0,0,0,0-2H5A1,1,0,1,0,5,6ZM17,19.444v3.833a.721.721,0,0,1-1.231.51L15,23.019l-.769.768A.721.721,0,0,1,13,23.277V19.444A3.987,3.987,0,0,1,15,12a3.936,3.936,0,0,1,1,.142V5a3,3,0,0,0-3-3H5A3,3,0,0,0,2,5V17a3,3,0,0,0,3,3h5a1,1,0,0,1,0,2H5a5.006,5.006,0,0,1-5-5V5A5.006,5.006,0,0,1,5,0h8a5.006,5.006,0,0,1,5,5v8.382a3.95,3.95,0,0,1-1,6.062ZM17,16a2,2,0,1,0-.586,1.414A2,2,0,0,0,17,16Z" fill="#fff"/>
</svg>
