<svg id="destinataire_gris" xmlns="http://www.w3.org/2000/svg" width="33" height="33" viewBox="0 0 33 33">
  <g id="Groupe_1564" data-name="Groupe 1564" opacity="0.1">
    <g id="Groupe_1563" data-name="Groupe 1563">
      <rect id="Rectangle_721" data-name="Rectangle 721" width="33" height="33" rx="10" fill="#374957"/>
    </g>
  </g>
  <path id="Tracé_3872" data-name="Tracé 3872" d="M7.055,10.262a1.924,1.924,0,0,0,.861-.2L9.2,9.419A1.915,1.915,0,0,0,10.261,7.7v-1.9A1.914,1.914,0,0,0,9.2,4.073L7.915,3.431a1.933,1.933,0,0,0-1.721,0l-1.283.641A1.914,1.914,0,0,0,3.848,5.793V7.7A1.915,1.915,0,0,0,4.911,9.418l1.283.641A1.925,1.925,0,0,0,7.055,10.262ZM5.131,7.7v-1.9A.642.642,0,0,1,5.163,5.6l1.4.7a1.1,1.1,0,0,0,.986,0l1.4-.7a.642.642,0,0,1,.033.192V7.7a.638.638,0,0,1-.355.574l-1.283.641a.647.647,0,0,1-.574,0L5.485,8.27A.638.638,0,0,1,5.131,7.7Zm6.413,6.413H9.807l2.236-2.066a7.055,7.055,0,1,0-9.977,0L4.3,14.11H2.565a.641.641,0,1,0,0,1.283h8.979a.641.641,0,0,0,0-1.283ZM2.973,2.973a5.772,5.772,0,1,1,8.182,8.145L8.6,13.479a2.253,2.253,0,0,1-3.1-.011L2.973,11.136A5.778,5.778,0,0,1,2.973,2.973Z" transform="translate(9.445 8.343)" fill="#374957"/>
</svg>
