<svg xmlns="http://www.w3.org/2000/svg" width="12.089" height="16.119" viewBox="0 0 12.089 16.119">
  <path id="devis_gris" d="M11.105,2.1,9.993.983A3.337,3.337,0,0,0,7.618,0H3.358A3.362,3.362,0,0,0,0,3.358v9.4a3.362,3.362,0,0,0,3.358,3.358H8.731a3.362,3.362,0,0,0,3.358-3.358V4.471A3.337,3.337,0,0,0,11.105,2.1Zm-.95.95a1.972,1.972,0,0,1,.255.312H8.731V1.679a2.082,2.082,0,0,1,.312.255Zm.59,9.714a2.015,2.015,0,0,1-2.015,2.015H3.358a2.015,2.015,0,0,1-2.015-2.015v-9.4A2.015,2.015,0,0,1,3.358,1.343h4.03V3.358A1.343,1.343,0,0,0,8.731,4.7h2.015ZM8.731,6.045a.672.672,0,0,1,0,1.343H3.358a.672.672,0,1,1,0-1.343ZM9.4,9.4a.672.672,0,0,1-.672.672H3.358a.672.672,0,0,1,0-1.343H8.731A.672.672,0,0,1,9.4,9.4ZM9.274,11.7a.672.672,0,0,1-.146.936,4.341,4.341,0,0,1-2.321.8,2.184,2.184,0,0,1-1.343-.47c-.22-.151-.3-.2-.47-.2a2.654,2.654,0,0,0-1.23.533.672.672,0,0,1-.815-1.067A3.937,3.937,0,0,1,5,11.418a2.032,2.032,0,0,1,1.23.44.9.9,0,0,0,.58.232,3.079,3.079,0,0,0,1.529-.543.672.672,0,0,1,.938.149Z" fill="#374957" opacity="0.8"/>
</svg>
