<svg xmlns="http://www.w3.org/2000/svg" width="14.835" height="19.328" viewBox="0 0 14.835 19.328">
  <g id="Groupe_2381" data-name="Groupe 2381" transform="translate(-865.63 -250.413)">
    <g id="Groupe_2382" data-name="Groupe 2382" transform="translate(3 4.664)">
      <path id="Tracé_4116" data-name="Tracé 4116" d="M-611.124,98.89c.106.03.213.055.316.09a1.657,1.657,0,0,1,1.118,1.608q0,3.236,0,6.472v1.869c-.4,0-.789-.03-1.169.008s-.752.147-1.136.226c0-.1-.01-.213-.015-.334h-6.6v1.093h5.276a5.044,5.044,0,0,0-1.649,5.584h-5.767V103.3h9.39V102.27a4.942,4.942,0,0,1-.9-.36,1.529,1.529,0,0,1-.719-1.6,1.592,1.592,0,0,1,1.219-1.368l.192-.056Zm-7.494,6.608h6.6v-1.076h-6.6Zm6.606,1.124h-6.6V107.7h6.6Z" transform="translate(1483.63 147.109)" fill="#fff" stroke="#fff" stroke-miterlimit="10" stroke-width="0.5"/>
      <path id="Tracé_4117" data-name="Tracé 4117" d="M-437.708,408.687a9.924,9.924,0,0,1-1.075-.29,3.841,3.841,0,0,1-2.408-3.89,3.867,3.867,0,0,1,3.138-3.473,3.864,3.864,0,0,1,3.258.893,3.864,3.864,0,0,1,1.311,3.113,3.872,3.872,0,0,1-3.368,3.615.855.855,0,0,0-.122.033Zm2.015-4.423h-1.1v-1.08h-1.081v2.183h2.184Z" transform="translate(1310.691 -143.859)" fill="#fff" stroke="#fff" stroke-miterlimit="10" stroke-width="0.5"/>
      <path id="Tracé_4118" data-name="Tracé 4118" d="M-609.4,118a2.807,2.807,0,0,0,.372,2.59h-7l-.012-.019Z" transform="translate(1479.093 128.703)" fill="#fff" stroke="#fff" stroke-miterlimit="10" stroke-width="0.5"/>
    </g>
  </g>
</svg>
