<svg id="embalage_gris" xmlns="http://www.w3.org/2000/svg" width="33" height="33" viewBox="0 0 33 33">
  <g id="Groupe_1564" data-name="Groupe 1564" opacity="0.1">
    <g id="Groupe_1563" data-name="Groupe 1563">
      <rect id="Rectangle_721" data-name="Rectangle 721" width="33" height="33" rx="10" fill="#374957"/>
    </g>
  </g>
  <path id="Tracé_3871" data-name="Tracé 3871" d="M10.849,0H2.855A2.858,2.858,0,0,0,0,2.855v7.994A2.858,2.858,0,0,0,2.855,13.7h7.994A2.858,2.858,0,0,0,13.7,10.849V2.855A2.858,2.858,0,0,0,10.849,0Zm1.713,2.855h-4V1.142h2.284a1.713,1.713,0,0,1,1.713,1.713ZM6.281,1.142H7.423V4A.571.571,0,0,1,6.281,4Zm-3.426,0H5.139V2.855h-4A1.713,1.713,0,0,1,2.855,1.142Zm7.994,11.42H2.855a1.713,1.713,0,0,1-1.713-1.713V4h4A1.713,1.713,0,0,0,8.565,4h4v6.852a1.713,1.713,0,0,1-1.713,1.713Zm.571-1.713a.571.571,0,0,1-.571.571H9.136a.571.571,0,0,1,0-1.142h1.713a.571.571,0,0,1,.571.571Z" transform="translate(9.648 10.031)" fill="#374957"/>
</svg>
