<svg xmlns="http://www.w3.org/2000/svg" width="22" height="22" viewBox="0 0 22 22">
  <path id="Tracé_3876" data-name="Tracé 3876" d="M17.416,0H4.583A4.589,4.589,0,0,0,0,4.583V17.416A4.589,4.589,0,0,0,4.583,22H17.416A4.589,4.589,0,0,0,22,17.416V4.583A4.589,4.589,0,0,0,17.416,0Zm2.75,4.583H13.75V1.833h3.667a2.75,2.75,0,0,1,2.75,2.75ZM10.083,1.833h1.833V6.417a.917.917,0,0,1-1.833,0Zm-5.5,0H8.25v2.75H1.833a2.75,2.75,0,0,1,2.75-2.75ZM17.416,20.166H4.583a2.75,2.75,0,0,1-2.75-2.75v-11H8.25a2.75,2.75,0,0,0,5.5,0h6.417v11a2.75,2.75,0,0,1-2.75,2.75Zm.917-2.75a.917.917,0,0,1-.917.917h-2.75a.917.917,0,0,1,0-1.833h2.75a.917.917,0,0,1,.917.917Z" fill="#fff"/>
</svg>
