<svg xmlns="http://www.w3.org/2000/svg" width="16.5" height="22" viewBox="0 0 16.5 22">
  <path id="Tracé_3878" data-name="Tracé 3878" d="M15.157,2.862l-1.518-1.52A4.554,4.554,0,0,0,10.4,0H4.583A4.589,4.589,0,0,0,0,4.583V17.416A4.589,4.589,0,0,0,4.583,22h7.333A4.589,4.589,0,0,0,16.5,17.416V6.1a4.554,4.554,0,0,0-1.343-3.24Zm-1.3,1.3a2.692,2.692,0,0,1,.347.425H11.916V2.292a2.841,2.841,0,0,1,.426.348Zm.806,13.258a2.75,2.75,0,0,1-2.75,2.75H4.583a2.75,2.75,0,0,1-2.75-2.75V4.583a2.75,2.75,0,0,1,2.75-2.75h5.5v2.75a1.833,1.833,0,0,0,1.833,1.833h2.75ZM11.916,8.25a.917.917,0,0,1,0,1.833H4.583a.917.917,0,1,1,0-1.833Zm.917,4.583a.917.917,0,0,1-.917.917H4.583a.917.917,0,0,1,0-1.833h7.333a.917.917,0,0,1,.917.917Zm-.176,3.129a.917.917,0,0,1-.2,1.278A5.925,5.925,0,0,1,9.29,18.333a2.981,2.981,0,0,1-1.833-.642c-.3-.206-.415-.275-.642-.275a3.623,3.623,0,0,0-1.679.728.917.917,0,0,1-1.113-1.456,5.373,5.373,0,0,1,2.8-1.105,2.773,2.773,0,0,1,1.679.6,1.234,1.234,0,0,0,.792.316,4.2,4.2,0,0,0,2.087-.742.917.917,0,0,1,1.28.2Z" transform="translate(0 0)" fill="#fff"/>
</svg>
