<svg id="excel" xmlns="http://www.w3.org/2000/svg" width="20.382" height="19.912" viewBox="0 0 20.382 19.912">
  <path id="path10" d="M10.66,0h1.375V1.852c2.318,0,4.635,0,6.953-.007a2.132,2.132,0,0,1,1.162.222,2.126,2.126,0,0,1,.227,1.172q-.017,6.029,0,12.054a10.571,10.571,0,0,1-.079,2.026c-.093.482-.671.493-1.058.509-2.4.007-4.8,0-7.2,0v2.084H10.6C7.069,19.271,3.533,18.678,0,18.06V1.855C3.554,1.236,7.108.627,10.66,0Z" fill="#fff"/>
  <path id="path48" d="M51.98,11h7.641V25.587H51.98V24.2h1.852V22.577H51.98v-.926h1.852V20.03H51.98V19.1h1.852V17.483H51.98v-.926h1.852V14.936H51.98V14.01h1.852V12.389H51.98Z" transform="translate(-39.945 -8.453)" fill="#283579"/>
  <path id="path58" d="M63.98,17h3.242v1.621H63.98Z" transform="translate(-49.166 -13.064)" fill="#fff"/>
  <path id="path72" d="M16.871,26.055q.785-.056,1.574-.095-.927,1.9-1.868,3.795c.637,1.3,1.287,2.584,1.926,3.881-.558-.032-1.114-.067-1.672-.107a27.329,27.329,0,0,1-1.155-2.908c-.315.94-.764,1.827-1.125,2.748-.507-.007-1.014-.028-1.521-.049.6-1.165,1.169-2.339,1.783-3.5-.521-1.192-1.093-2.362-1.63-3.547q.764-.045,1.528-.088c.345.905.722,1.8,1.007,2.727.306-.984.762-1.91,1.153-2.862Z" transform="translate(-10.013 -19.949)" fill="#283579"/>
  <path id="path90" d="M63.98,28h3.242v1.621H63.98Z" transform="translate(-49.166 -21.517)" fill="#fff"/>
  <path id="path108" d="M63.98,39h3.242v1.621H63.98Z" transform="translate(-49.166 -29.97)" fill="#fff"/>
  <path id="path114" d="M63.98,50h3.242v1.621H63.98Z" transform="translate(-49.166 -38.423)" fill="#fff"/>
  <path id="path120" d="M63.98,61h3.242v1.621H63.98Z" transform="translate(-49.166 -46.876)" fill="#fff"/>
</svg>
