<svg xmlns="http://www.w3.org/2000/svg" width="17.677" height="13.761" viewBox="0 0 17.677 13.761">
  <g id="eye-gris" transform="translate(0.005 -0.655)">
    <path id="Tracé_3903" data-name="Tracé 3903" d="M17.132,5.635a9.751,9.751,0,0,0-8.3-4.98,9.751,9.751,0,0,0-8.3,4.98,3.614,3.614,0,0,0,0,3.8,9.751,9.751,0,0,0,8.3,4.98,9.751,9.751,0,0,0,8.3-4.98,3.614,3.614,0,0,0,0-3.8Zm-1.255,3.03a8.33,8.33,0,0,1-7.043,4.278A8.33,8.33,0,0,1,1.791,8.665a2.148,2.148,0,0,1,0-2.259A8.33,8.33,0,0,1,8.834,2.127a8.324,8.324,0,0,1,7.043,4.278,2.149,2.149,0,0,1,0,2.259Z" fill="#374957"/>
    <path id="Tracé_3904" data-name="Tracé 3904" d="M10.681,5a3.686,3.686,0,1,0,2.6,1.08A3.681,3.681,0,0,0,10.681,5Zm0,5.89a2.209,2.209,0,1,1,1.562-.647A2.209,2.209,0,0,1,10.681,10.89Z" transform="translate(-1.847 -1.146)" fill="#374957"/>
  </g>
</svg>
