<svg xmlns="http://www.w3.org/2000/svg" width="15.678" height="17.106" viewBox="0 0 15.678 17.106">
  <path id="favorie" d="M13.638,17.1a2,2,0,0,1-1.416-.6L7.839,12.151l-4.383,4.36a2,2,0,0,1-2.206.434A2,2,0,0,1,0,15.075V3.563A3.563,3.563,0,0,1,3.563,0h8.552a3.563,3.563,0,0,1,3.563,3.563V15.075a2,2,0,0,1-1.248,1.87A2.043,2.043,0,0,1,13.638,17.1ZM3.563,1.425A2.138,2.138,0,0,0,1.425,3.563V15.075a.6.6,0,0,0,1.024.428L7.34,10.642a.713.713,0,0,1,1,0L13.23,15.5a.6.6,0,0,0,1.024-.428V3.563a2.138,2.138,0,0,0-2.138-2.138Z" fill="#374957"/>
</svg>
