<svg xmlns="http://www.w3.org/2000/svg" width="14.15" height="15.441" viewBox="0 0 14.15 15.441">
  <path id="filter_gris" d="M8.365,15.441a.643.643,0,0,1-.386-.129l-2.573-1.93a.643.643,0,0,1-.257-.515V9.252L.634,4.174A2.509,2.509,0,0,1,2.51,0h9.136A2.509,2.509,0,0,1,13.52,4.174L9.008,9.252V14.8a.643.643,0,0,1-.643.643Zm-1.93-2.9,1.287.965v-4.5a.643.643,0,0,1,.163-.427L12.56,3.319a1.222,1.222,0,0,0-.914-2.032H2.51A1.222,1.222,0,0,0,1.6,3.318L6.273,8.58a.643.643,0,0,1,.162.427Z" transform="translate(-0.003)" fill="#374957"/>
</svg>
