<svg xmlns="http://www.w3.org/2000/svg" width="13.5" height="18" viewBox="0 0 13.5 18">
  <path id="Tracé_3849" data-name="Tracé 3849" d="M12.4,2.342,11.159,1.1A3.726,3.726,0,0,0,8.507,0H3.75A3.755,3.755,0,0,0,0,3.75v10.5A3.754,3.754,0,0,0,3.75,18h6a3.754,3.754,0,0,0,3.75-3.75V4.993a3.726,3.726,0,0,0-1.1-2.651ZM11.341,3.4a2.2,2.2,0,0,1,.284.348H9.75V1.875a2.325,2.325,0,0,1,.349.285ZM12,14.25A2.25,2.25,0,0,1,9.75,16.5h-6A2.25,2.25,0,0,1,1.5,14.25V3.75A2.25,2.25,0,0,1,3.75,1.5h4.5V3.75a1.5,1.5,0,0,0,1.5,1.5H12ZM9.75,6.75a.75.75,0,0,1,0,1.5h-6a.75.75,0,1,1,0-1.5Zm.75,3.75a.75.75,0,0,1-.75.75h-6a.75.75,0,0,1,0-1.5h6a.75.75,0,0,1,.75.75Zm-.144,2.56a.75.75,0,0,1-.163,1.045A4.848,4.848,0,0,1,7.6,15a2.439,2.439,0,0,1-1.5-.525c-.246-.169-.34-.225-.525-.225a2.964,2.964,0,0,0-1.374.6.75.75,0,0,1-.911-1.191,4.4,4.4,0,0,1,2.288-.9,2.269,2.269,0,0,1,1.374.491A1.01,1.01,0,0,0,7.6,13.5a3.439,3.439,0,0,0,1.708-.607.75.75,0,0,1,1.047.167Z" fill="#374957" opacity="0.5"/>
</svg>
