<svg xmlns="http://www.w3.org/2000/svg" width="36" height="36" viewBox="0 0 36 36">
  <g id="Groupe_2384" data-name="Groupe 2384" transform="translate(-353 -316)">
    <rect id="Rectangle_7" data-name="Rectangle 7" width="36" height="36" rx="10" transform="translate(353 316)" fill="#2882c6" opacity="0.2"/>
    <path id="Tracé_3883" data-name="Tracé 3883" d="M14.229,2.687,12.8,1.26A4.275,4.275,0,0,0,9.761,0H4.3A4.308,4.308,0,0,0,0,4.3V16.351a4.308,4.308,0,0,0,4.3,4.3h6.884a4.308,4.308,0,0,0,4.3-4.3V5.729a4.275,4.275,0,0,0-1.261-3.042ZM13.012,3.9a2.527,2.527,0,0,1,.326.4H11.187V2.151a2.667,2.667,0,0,1,.4.327Zm.756,12.447a2.582,2.582,0,0,1-2.582,2.582H4.3a2.582,2.582,0,0,1-2.582-2.582V4.3A2.582,2.582,0,0,1,4.3,1.721H9.466V4.3a1.721,1.721,0,0,0,1.721,1.721h2.582ZM11.187,7.745a.861.861,0,0,1,0,1.721H4.3a.861.861,0,1,1,0-1.721Zm.861,4.3a.861.861,0,0,1-.861.861H4.3a.861.861,0,0,1,0-1.721h6.884a.861.861,0,0,1,.861.861Zm-.165,2.937a.861.861,0,0,1-.187,1.2,5.562,5.562,0,0,1-2.974,1.027A2.8,2.8,0,0,1,7,16.609c-.282-.194-.39-.258-.6-.258a3.4,3.4,0,0,0-1.577.683.861.861,0,0,1-1.045-1.367A5.045,5.045,0,0,1,6.4,14.629a2.6,2.6,0,0,1,1.577.564,1.159,1.159,0,0,0,.744.3,3.946,3.946,0,0,0,1.959-.7.861.861,0,0,1,1.2.191Z" transform="translate(363.255 323.674)" fill="#2882c6"/>
  </g>
</svg>
