<svg xmlns="http://www.w3.org/2000/svg" width="36" height="36" viewBox="0 0 36 36">
  <g id="Groupe_2282" data-name="Groupe 2282" transform="translate(-353 -316)">
    <rect id="Rectangle_7" data-name="Rectangle 7" width="36" height="36" rx="10" transform="translate(353 316)" fill="#28c66f" opacity="0.2"/>
    <path id="Tracé_3869" data-name="Tracé 3869" d="M11.085,4.2a.84.84,0,0,1-.84.84H6.883a.84.84,0,1,1,0-1.681h3.362a.84.84,0,0,1,.84.84Zm5.043.605V13.6a4.2,4.2,0,0,1-1.114,2.849l1.051,2.567a.841.841,0,0,1-1.557.636l-.9-2.213A11.407,11.407,0,0,1,8.564,18.49a11.416,11.416,0,0,1-5.043-1.055l-.9,2.213a.84.84,0,1,1-1.556-.636l1.05-2.567A4.2,4.2,0,0,1,1,13.6V4.808A4.187,4.187,0,0,1,3.92.8,15.437,15.437,0,0,1,8.564,0a15.4,15.4,0,0,1,4.644.8,4.185,4.185,0,0,1,2.921,4ZM14.447,9.865a7.237,7.237,0,0,1-5.883,3.583A7.237,7.237,0,0,1,2.68,9.865V13.6a2.486,2.486,0,0,0,1.271,2.191A9.523,9.523,0,0,0,8.564,16.81a9.515,9.515,0,0,0,4.612-1.022A2.485,2.485,0,0,0,14.447,13.6Zm0-4.822V4.808a2.511,2.511,0,0,0-1.751-2.4,13.753,13.753,0,0,0-4.133-.724A13.784,13.784,0,0,0,4.431,2.4a2.513,2.513,0,0,0-1.751,2.4v.235c0,2.053,2.223,6.724,5.883,6.724S14.447,7.1,14.447,5.043ZM8.564,14.288a.84.84,0,1,0,.594.246A.84.84,0,0,0,8.564,14.288Z" transform="translate(362.438 323.909)" fill="#28c66f"/>
  </g>
</svg>
