<svg xmlns="http://www.w3.org/2000/svg" width="36" height="36" viewBox="0 0 36 36">
  <g id="Groupe_2386" data-name="Groupe 2386" transform="translate(-353 -316)">
    <rect id="Rectangle_7" data-name="Rectangle 7" width="36" height="36" rx="10" transform="translate(353 316)" fill="#80f" opacity="0.2"/>
    <g id="ic_Dashboard" transform="translate(363.03 324.947)">
      <g id="Groupe_1637" data-name="Groupe 1637" transform="translate(15.937 1.086) rotate(90)">
        <path id="Tracé_3879" data-name="Tracé 3879" d="M12.547,0H3.386A3.356,3.356,0,0,0,0,3.32V5.311a.664.664,0,1,0,1.328,0V3.32A2.028,2.028,0,0,1,3.386,1.328h9.162A2.027,2.027,0,0,1,14.605,3.32v9.294a2.027,2.027,0,0,1-2.058,1.992H3.386a2.027,2.027,0,0,1-2.058-1.992V10.622a.664.664,0,0,0-1.328,0v1.992a3.356,3.356,0,0,0,3.386,3.319h9.162a3.356,3.356,0,0,0,3.386-3.319V3.32A3.356,3.356,0,0,0,12.547,0Z" transform="translate(0 0)" fill="#80f"/>
        <path id="Tracé_3880" data-name="Tracé 3880" d="M0,4.639A.664.664,0,0,0,.664,5.3l8.755-.02-2.87,2.87a.664.664,0,1,0,.939.939l3.045-3.045a1.992,1.992,0,0,0,0-2.816L7.489.186a.664.664,0,0,0-.939.939L9.38,3.955l-8.716.02A.664.664,0,0,0,0,4.639Z" transform="translate(1.992 3.327)" fill="#80f"/>
      </g>
    </g>
  </g>
</svg>
