<svg id="Composant_14_59" data-name="Composant 14 – 59" xmlns="http://www.w3.org/2000/svg" width="36" height="36" viewBox="0 0 36 36">
  <rect id="Rectangle_7" data-name="Rectangle 7" width="36" height="36" rx="10" fill="#d79b09" opacity="0.2"/>
  <path id="Tracé_4105" data-name="Tracé 4105" d="M5.965,15.97h-3.3A2.662,2.662,0,0,1,0,13.308V9.981A2.662,2.662,0,0,1,2.662,7.319H8.555a2.092,2.092,0,0,1,1.79,1.011l2.141-2.352A2,2,0,0,1,15.461,8.66l-4.525,5.082A6.662,6.662,0,0,1,5.965,15.97ZM2.662,8.65A1.331,1.331,0,0,0,1.331,9.981v3.327a1.331,1.331,0,0,0,1.331,1.331h3.3a5.327,5.327,0,0,0,3.974-1.782l4.528-5.082a.675.675,0,0,0-.048-.946.685.685,0,0,0-.484-.175.666.666,0,0,0-.466.219l-2.945,3.241A2.1,2.1,0,0,1,8.85,11.48l-3.434.491a.665.665,0,0,1-.189-1.318l3.435-.49A.76.76,0,0,0,8.555,8.65ZM7.319,6.038a1.321,1.321,0,0,1-.83-.29c-1.139-.914-2.5-2.288-2.5-3.618A2.069,2.069,0,0,1,5.989,0,1.919,1.919,0,0,1,7.319.544,1.919,1.919,0,0,1,8.65,0a2.069,2.069,0,0,1,2,2.129c0,1.331-1.358,2.7-2.5,3.619A1.322,1.322,0,0,1,7.319,6.038ZM5.989,1.331a.742.742,0,0,0-.665.8c0,.6.766,1.59,2,2.581C8.55,3.72,9.316,2.728,9.316,2.129a.742.742,0,0,0-.665-.8.742.742,0,0,0-.665.8.665.665,0,0,1-1.331,0,.742.742,0,0,0-.665-.8Z" transform="translate(10.017 9.996)" fill="#d79b09"/>
</svg>
