<svg xmlns="http://www.w3.org/2000/svg" width="36" height="36" viewBox="0 0 36 36">
  <g id="Groupe_2385" data-name="Groupe 2385" transform="translate(-353 -316)">
    <rect id="Rectangle_7" data-name="Rectangle 7" width="36" height="36" rx="10" transform="translate(353 316)" fill="#9e8936" opacity="0.2"/>
    <g id="Groupe_2253" data-name="Groupe 2253" transform="translate(361.597 323.775)">
      <path id="Tracé_3890" data-name="Tracé 3890" d="M10.408,8a3.408,3.408,0,1,0,2.41,1,3.408,3.408,0,0,0-2.41-1Zm0,5.112a1.7,1.7,0,1,1,1.2-.5A1.7,1.7,0,0,1,10.408,13.113Z" transform="translate(-1.006 -1.184)" fill="#9e8936"/>
      <path id="Tracé_3891" data-name="Tracé 3891" d="M17.322,11.844l-.378-.218a7.753,7.753,0,0,0,0-2.8l.378-.218a2.558,2.558,0,0,0-2.556-4.431l-.379.219a7.648,7.648,0,0,0-2.427-1.4V2.556a2.556,2.556,0,1,0-5.112,0v.437A7.649,7.649,0,0,0,4.42,4.4l-.381-.221A2.558,2.558,0,0,0,1.483,8.606l.378.218a7.754,7.754,0,0,0,0,2.8l-.378.218a2.558,2.558,0,0,0,2.556,4.431l.379-.219a7.648,7.648,0,0,0,2.428,1.4v.437a2.556,2.556,0,1,0,5.112,0v-.437a7.648,7.648,0,0,0,2.427-1.4l.381.22a2.558,2.558,0,1,0,2.556-4.431ZM15.151,8.626a6,6,0,0,1,0,3.2.852.852,0,0,0,.4.965l.924.533a.852.852,0,1,1-.852,1.477l-.925-.535a.852.852,0,0,0-1.035.141A5.95,5.95,0,0,1,10.894,16a.852.852,0,0,0-.64.826v1.068a.852.852,0,1,1-1.7,0V16.826A.852.852,0,0,0,7.91,16a5.95,5.95,0,0,1-2.762-1.6.852.852,0,0,0-1.035-.141l-.924.534a.852.852,0,1,1-.852-1.476l.924-.533a.852.852,0,0,0,.4-.965,6.005,6.005,0,0,1,0-3.2.852.852,0,0,0-.4-.962l-.924-.533a.852.852,0,0,1,.852-1.477l.925.535A.852.852,0,0,0,5.148,6.05a5.951,5.951,0,0,1,2.763-1.6.852.852,0,0,0,.64-.829V2.556a.852.852,0,0,1,1.7,0V3.623a.852.852,0,0,0,.64.826,5.95,5.95,0,0,1,2.763,1.6.852.852,0,0,0,1.035.141l.924-.534a.852.852,0,1,1,.852,1.476l-.924.533a.852.852,0,0,0-.394.962Z" transform="translate(0 0)" fill="#9e8936"/>
    </g>
  </g>
</svg>
