<svg id="impression" xmlns="http://www.w3.org/2000/svg" width="14.149" height="14.149" viewBox="0 0 14.149 14.149">
  <path id="Tracé_3841" data-name="Tracé 3841" d="M11.2,3.537V2.358A2.358,2.358,0,0,0,8.843,0H5.306A2.358,2.358,0,0,0,2.948,2.358V3.537A2.951,2.951,0,0,0,0,6.485V9.433A2.951,2.951,0,0,0,2.948,12.38a1.769,1.769,0,0,0,1.769,1.769H9.433A1.769,1.769,0,0,0,11.2,12.38a2.951,2.951,0,0,0,2.948-2.948V6.485A2.951,2.951,0,0,0,11.2,3.537ZM4.127,2.358A1.179,1.179,0,0,1,5.306,1.179H8.843a1.179,1.179,0,0,1,1.179,1.179V3.537h-5.9Zm5.9,10.022a.59.59,0,0,1-.59.59H4.716a.59.59,0,0,1-.59-.59V10.022a.59.59,0,0,1,.59-.59H9.433a.59.59,0,0,1,.59.59ZM12.97,9.433A1.769,1.769,0,0,1,11.2,11.2V10.022A1.769,1.769,0,0,0,9.433,8.254H4.716a1.769,1.769,0,0,0-1.769,1.769V11.2A1.769,1.769,0,0,1,1.179,9.433V6.485A1.769,1.769,0,0,1,2.948,4.716H11.2A1.769,1.769,0,0,1,12.97,6.485Z" fill="#fff"/>
  <path id="Tracé_3842" data-name="Tracé 3842" d="M18,10H16a1,1,0,0,0,0,2h2a1,1,0,0,0,0-2Z" transform="translate(-7.388 -4.478)" fill="#fff"/>
</svg>
