<svg xmlns="http://www.w3.org/2000/svg" width="14.563" height="17.475" viewBox="0 0 14.563 17.475">
  <path id="Tracé_4115" data-name="Tracé 4115" d="M10.922,10.194a.728.728,0,0,1-.728.728H4.369a.728.728,0,0,1,0-1.456h5.825a.728.728,0,0,1,.728.728ZM8.01,12.378H4.369a.728.728,0,0,0,0,1.456H8.01a.728.728,0,0,0,0-1.456Zm6.553-4.744v6.2a3.645,3.645,0,0,1-3.641,3.641H3.641A3.645,3.645,0,0,1,0,13.834V3.641A3.645,3.645,0,0,1,3.641,0H6.928a5.066,5.066,0,0,1,3.6,1.493l2.537,2.538a5.061,5.061,0,0,1,1.493,3.6ZM9.5,2.522a3.65,3.65,0,0,0-.765-.568V5.1a.728.728,0,0,0,.728.728h3.143a3.631,3.631,0,0,0-.569-.765Zm3.6,5.112c0-.12-.023-.235-.034-.353H9.466A2.184,2.184,0,0,1,7.281,5.1V1.49c-.118-.011-.234-.034-.353-.034H3.641A2.184,2.184,0,0,0,1.456,3.641V13.834a2.184,2.184,0,0,0,2.184,2.184h7.281a2.184,2.184,0,0,0,2.184-2.184Z" transform="translate(0)" fill="#374957"/>
</svg>
