<svg id="logout" xmlns="http://www.w3.org/2000/svg" width="18.815" height="20.535" viewBox="0 0 18.815 20.535">
  <path id="Tracé_4101" data-name="Tracé 4101" d="M11.973,3.7a.872.872,0,0,0,.538.792A7.7,7.7,0,1,1,6.3,4.5.875.875,0,0,0,6.842,3.7a.855.855,0,0,0-1.175-.795,9.408,9.408,0,1,0,7.484,0,.855.855,0,0,0-1.178.8Z" transform="translate(-0.001 -0.412)" fill="#374957"/>
  <path id="Tracé_4102" data-name="Tracé 4102" d="M11.711.855a.855.855,0,1,0-1.71,0V5.987a.855.855,0,1,0,1.71,0Z" transform="translate(-1.449)" fill="#374957"/>
</svg>
