<svg xmlns="http://www.w3.org/2000/svg" width="17.102" height="17.104" viewBox="0 0 17.102 17.104">
  <path id="mail-gris" d="M16.477.629a2.114,2.114,0,0,0-2-.57l-11.4,2.4A3.56,3.56,0,0,0,1.045,8.5L2.27,9.728a.713.713,0,0,1,.209.5v2.258a2.113,2.113,0,0,0,.214.916l-.006,0,.019.019a2.138,2.138,0,0,0,.971.966l.019.019,0-.006a2.113,2.113,0,0,0,.916.214H6.873a.713.713,0,0,1,.5.208L8.6,16.055a3.537,3.537,0,0,0,2.509,1.05,3.6,3.6,0,0,0,1.144-.188,3.515,3.515,0,0,0,2.383-2.841L17.041,2.648A2.12,2.12,0,0,0,16.477.629ZM3.279,8.722,2.054,7.5a2.1,2.1,0,0,1-.515-2.191A2.122,2.122,0,0,1,3.321,3.864L14.611,1.487,3.9,12.2V10.233a2.122,2.122,0,0,0-.624-1.511Zm9.957,5.11a2.138,2.138,0,0,1-3.627,1.22L8.383,13.826a2.122,2.122,0,0,0-1.51-.626H4.91L15.619,2.495Z" transform="translate(-0.003 -0.001)" fill="#374957"/>
</svg>
