<svg xmlns="http://www.w3.org/2000/svg" width="18.609" height="20.535" viewBox="0 0 18.609 20.535">
  <g id="Groupe_2350" data-name="Groupe 2350" transform="translate(-5 0)">
    <g id="Groupe_2351" data-name="Groupe 2351" transform="translate(5)">
      <path id="Tracé_4100" data-name="Tracé 4100" d="M19.438,11.688,17.813,5.84a7.974,7.974,0,0,0-15.467.406L1.088,11.9A4.277,4.277,0,0,0,5.263,17.11h.953a4.278,4.278,0,0,0,8.384,0h.717a4.278,4.278,0,0,0,4.122-5.422Zm-9.03,7.133A2.567,2.567,0,0,1,8,17.11h4.818a2.567,2.567,0,0,1-2.409,1.711Zm6.952-4.436A2.547,2.547,0,0,1,15.316,15.4H5.263a2.567,2.567,0,0,1-2.5-3.123l1.258-5.66A6.263,6.263,0,0,1,16.164,6.3l1.625,5.848a2.547,2.547,0,0,1-.429,2.24Z" transform="translate(-0.986 -0.002)" fill="#374957"/>
    </g>
  </g>
</svg>
