<svg id="Groupe_2380" data-name="Groupe 2380" xmlns="http://www.w3.org/2000/svg" width="25.973" height="12.986" viewBox="0 0 25.973 12.986">
  <path id="Tracé_4112" data-name="Tracé 4112" d="M1.082,2.164H16.233a1.082,1.082,0,0,0,0-2.164H1.082a1.082,1.082,0,0,0,0,2.164Z" transform="translate(0 0)" fill="#374957"/>
  <path id="Tracé_4113" data-name="Tracé 4113" d="M16.233,10H1.082a1.082,1.082,0,0,0,0,2.164H16.233a1.082,1.082,0,0,0,0-2.164Z" transform="translate(0 0.822)" fill="#374957"/>
  <path id="Tracé_4114" data-name="Tracé 4114" d="M24.89,5H1.082a1.082,1.082,0,1,0,0,2.164H24.89A1.082,1.082,0,0,0,24.89,5Z" transform="translate(0 0.411)" fill="#374957"/>
</svg>
