<svg id="print" xmlns="http://www.w3.org/2000/svg" width="17.106" height="17.106" viewBox="0 0 17.106 17.106">
  <path id="Tracé_3898" data-name="Tracé 3898" d="M13.542,4.276V2.851A2.851,2.851,0,0,0,10.691,0H6.415A2.851,2.851,0,0,0,3.564,2.851V4.276A3.568,3.568,0,0,0,0,7.84V11.4a3.568,3.568,0,0,0,3.564,3.564A2.138,2.138,0,0,0,5.7,17.106h5.7a2.138,2.138,0,0,0,2.138-2.138A3.568,3.568,0,0,0,17.106,11.4V7.84a3.568,3.568,0,0,0-3.564-3.564ZM4.989,2.851A1.426,1.426,0,0,1,6.415,1.425h4.276a1.426,1.426,0,0,1,1.425,1.425V4.276H4.989Zm7.127,12.117a.713.713,0,0,1-.713.713H5.7a.713.713,0,0,1-.713-.713V12.117A.713.713,0,0,1,5.7,11.4h5.7a.713.713,0,0,1,.713.713ZM15.68,11.4a2.138,2.138,0,0,1-2.138,2.138V12.117A2.138,2.138,0,0,0,11.4,9.978H5.7a2.138,2.138,0,0,0-2.138,2.138v1.425A2.138,2.138,0,0,1,1.425,11.4V7.84A2.138,2.138,0,0,1,3.564,5.7h9.978A2.138,2.138,0,0,1,15.68,7.84Z" fill="#374957"/>
  <path id="Tracé_3899" data-name="Tracé 3899" d="M17.138,10H15.713a.713.713,0,0,0,0,1.425h1.425a.713.713,0,0,0,0-1.425Z" transform="translate(-4.309 -2.873)" fill="#374957"/>
</svg>
