<svg xmlns="http://www.w3.org/2000/svg" width="12.978" height="13.028" viewBox="0 0 12.978 13.028">
  <g id="refrech" transform="translate(-0.046 0)">
    <path id="Tracé_3884" data-name="Tracé 3884" d="M6.535,1.085A5.445,5.445,0,0,1,10.4,2.714H8.706a.543.543,0,0,0,0,1.086h2.249a1.009,1.009,0,0,0,1.008-1.008V.543a.543.543,0,0,0-1.086,0V1.671A6.5,6.5,0,0,0,.048,5.917a.547.547,0,0,0,.543.6.533.533,0,0,0,.537-.477A5.436,5.436,0,0,1,6.535,1.085Z" transform="translate(0 0)" fill="#374957"/>
    <path id="Tracé_3885" data-name="Tracé 3885" d="M13.373,12a.533.533,0,0,0-.537.477A5.421,5.421,0,0,1,3.562,15.8H5.257a.543.543,0,1,0,0-1.086H3.008A1.007,1.007,0,0,0,2,15.722v2.249a.543.543,0,0,0,1.086,0V16.843A6.5,6.5,0,0,0,13.915,12.6a.547.547,0,0,0-.543-.6Z" transform="translate(-0.893 -5.486)" fill="#374957"/>
  </g>
</svg>
