<svg xmlns="http://www.w3.org/2000/svg" width="13.242" height="14.717" viewBox="0 0 13.242 14.717">
  <g id="reparation_gris" transform="translate(-0.203)" opacity="0.8">
    <path id="Tracé_3888" data-name="Tracé 3888" d="M9.453,8a2.453,2.453,0,1,0,1.734.718A2.453,2.453,0,0,0,9.453,8Zm0,3.679a1.226,1.226,0,1,1,.867-.359A1.226,1.226,0,0,1,9.453,11.68Z" transform="translate(-2.629 -3.094)" fill="#374957"/>
    <path id="Tracé_3889" data-name="Tracé 3889" d="M12.523,8.524l-.272-.157a5.58,5.58,0,0,0,0-2.018l.272-.157A1.841,1.841,0,0,0,10.684,3l-.273.158A5.5,5.5,0,0,0,8.664,2.154V1.84a1.84,1.84,0,1,0-3.679,0v.315A5.5,5.5,0,0,0,3.238,3.164L2.964,3a1.841,1.841,0,0,0-1.84,3.189l.272.157a5.58,5.58,0,0,0,0,2.018l-.272.157a1.841,1.841,0,0,0,1.84,3.189l.273-.158a5.5,5.5,0,0,0,1.748,1.007v.315a1.84,1.84,0,1,0,3.679,0v-.315a5.5,5.5,0,0,0,1.746-1.009l.274.158a1.841,1.841,0,1,0,1.84-3.189ZM10.961,6.208a4.321,4.321,0,0,1,0,2.3.613.613,0,0,0,.285.695l.665.384a.613.613,0,1,1-.613,1.063l-.666-.385a.613.613,0,0,0-.745.1A4.282,4.282,0,0,1,7.9,11.515a.613.613,0,0,0-.461.594v.768a.613.613,0,1,1-1.226,0V12.11a.613.613,0,0,0-.461-.594,4.282,4.282,0,0,1-1.988-1.152.613.613,0,0,0-.745-.1l-.665.384a.613.613,0,1,1-.613-1.062L2.4,9.2a.613.613,0,0,0,.285-.695,4.322,4.322,0,0,1,0-2.3A.613.613,0,0,0,2.4,5.514L1.738,5.13a.613.613,0,0,1,.613-1.063l.666.385a.613.613,0,0,0,.744-.1A4.283,4.283,0,0,1,5.75,3.2a.613.613,0,0,0,.461-.6V1.84a.613.613,0,0,1,1.226,0v.768A.613.613,0,0,0,7.9,3.2,4.282,4.282,0,0,1,9.887,4.354a.613.613,0,0,0,.745.1l.665-.384a.613.613,0,1,1,.613,1.062l-.665.384a.613.613,0,0,0-.284.692Z" transform="translate(0 0)" fill="#374957"/>
  </g>
</svg>
