<svg xmlns="http://www.w3.org/2000/svg" width="15.045" height="15.045" viewBox="0 0 15.045 15.045">
  <g id="save" transform="translate(0 0)">
    <path id="Tracé_3847" data-name="Tracé 3847" d="M10.507,10a2.507,2.507,0,1,0,2.507,2.507A2.507,2.507,0,0,0,10.507,10Zm0,3.761a1.254,1.254,0,1,1,1.254-1.254A1.254,1.254,0,0,1,10.507,13.761Z" transform="translate(-2.985 -3.731)" fill="#fff"/>
    <path id="Tracé_3848" data-name="Tracé 3848" d="M14.127,2.584,12.461.918A3.113,3.113,0,0,0,10.245,0H3.134A3.138,3.138,0,0,0,0,3.134v8.776a3.138,3.138,0,0,0,3.134,3.134h8.776a3.138,3.138,0,0,0,3.134-3.134V4.8a3.113,3.113,0,0,0-.918-2.216ZM10.657,1.3v.577A1.881,1.881,0,0,1,8.776,3.761H6.269A1.881,1.881,0,0,1,4.388,1.881V1.254h5.857A1.851,1.851,0,0,1,10.657,1.3Zm3.134,10.607a1.881,1.881,0,0,1-1.881,1.881H3.134a1.881,1.881,0,0,1-1.881-1.881V3.134A1.881,1.881,0,0,1,3.134,1.254v.627A3.138,3.138,0,0,0,6.269,5.015H8.776a3.129,3.129,0,0,0,3.111-2.9L13.241,3.47a1.893,1.893,0,0,1,.55,1.33Z" transform="translate(0 0)" fill="#fff"/>
  </g>
</svg>
