<svg id="save-gris" xmlns="http://www.w3.org/2000/svg" width="17.104" height="17.104" viewBox="0 0 17.104 17.104">
  <path id="Tracé_3896" data-name="Tracé 3896" d="M10.851,10a2.851,2.851,0,1,0,2.016.835A2.851,2.851,0,0,0,10.851,10Zm0,4.276a1.425,1.425,0,1,1,1.008-.417A1.425,1.425,0,0,1,10.851,14.276Z" transform="translate(-2.299 -2.873)" fill="#374957"/>
  <path id="Tracé_3897" data-name="Tracé 3897" d="M16.06,2.938,14.166,1.043A3.539,3.539,0,0,0,11.647,0H3.563A3.568,3.568,0,0,0,0,3.563V13.54A3.568,3.568,0,0,0,3.563,17.1H13.54A3.567,3.567,0,0,0,17.1,13.54V5.457A3.539,3.539,0,0,0,16.06,2.938ZM12.115,1.482v.656A2.138,2.138,0,0,1,9.977,4.276H7.127A2.138,2.138,0,0,1,4.989,2.138V1.425h6.658A2.1,2.1,0,0,1,12.115,1.482ZM15.678,13.54a2.138,2.138,0,0,1-2.138,2.138H3.563A2.138,2.138,0,0,1,1.425,13.54V3.563A2.138,2.138,0,0,1,3.563,1.425v.713A3.568,3.568,0,0,0,7.127,5.7H9.977a3.557,3.557,0,0,0,3.536-3.3l1.539,1.539a2.152,2.152,0,0,1,.626,1.512Z" fill="#374957"/>
</svg>
