<svg xmlns="http://www.w3.org/2000/svg" width="16.355" height="16.357" viewBox="0 0 16.355 16.357">
  <path id="send" d="M15.758.6A2.021,2.021,0,0,0,13.849.056l-10.9,2.3A3.4,3.4,0,0,0,1,8.133L2.171,9.3a.682.682,0,0,1,.2.483v2.159a2.021,2.021,0,0,0,.2.876l-.005,0,.018.018a2.045,2.045,0,0,0,.928.924l.018.018,0-.005a2.021,2.021,0,0,0,.876.2H6.573a.682.682,0,0,1,.482.2l1.17,1.17a3.383,3.383,0,0,0,2.4,1,3.441,3.441,0,0,0,1.094-.18A3.362,3.362,0,0,0,14,13.461L16.3,2.532A2.028,2.028,0,0,0,15.758.6ZM3.136,8.341,1.964,7.171a2,2,0,0,1-.492-2.1,2.03,2.03,0,0,1,1.7-1.381l10.8-2.273L3.732,11.664V9.786A2.03,2.03,0,0,0,3.136,8.341Zm9.522,4.887a2.045,2.045,0,0,1-3.468,1.167L8.017,13.222a2.03,2.03,0,0,0-1.444-.6H4.7L14.937,2.386Z" transform="translate(-0.003 -0.001)" fill="#fff"/>
</svg>
