<svg xmlns="http://www.w3.org/2000/svg" xmlns:xlink="http://www.w3.org/1999/xlink" width="15" height="15" viewBox="0 0 15 15">
  <defs>
    <clipPath id="clip-path">
      <rect id="Rectangle_1071" data-name="Rectangle 1071" width="15" height="15" fill="#fff"/>
    </clipPath>
  </defs>
  <g id="stat_gris" opacity="0.5" clip-path="url(#clip-path)">
    <path id="Tracé_3850" data-name="Tracé 3850" d="M14.106,13.492H3.066a1.84,1.84,0,0,1-1.84-1.84V.613A.613.613,0,1,0,0,.613V11.652a3.07,3.07,0,0,0,3.066,3.066H14.106a.613.613,0,0,0,0-1.227Z" transform="translate(0 0)" fill="#374957"/>
    <path id="Tracé_3851" data-name="Tracé 3851" d="M5.613,16.52a.613.613,0,0,0,.613-.613V11.613a.613.613,0,0,0-1.227,0v4.293a.613.613,0,0,0,.613.613Z" transform="translate(-1.934 -4.254)" fill="#374957"/>
    <path id="Tracé_3852" data-name="Tracé 3852" d="M10,9.613v5.52a.613.613,0,0,0,1.227,0V9.613a.613.613,0,1,0-1.227,0Z" transform="translate(-3.867 -3.48)" fill="#374957"/>
    <path id="Tracé_3853" data-name="Tracé 3853" d="M15,12.613v3.68a.613.613,0,0,0,1.227,0v-3.68a.613.613,0,0,0-1.227,0Z" transform="translate(-5.801 -4.641)" fill="#374957"/>
    <path id="Tracé_3854" data-name="Tracé 3854" d="M20,8.613v6.133a.613.613,0,0,0,1.227,0V8.613a.613.613,0,0,0-1.227,0Z" transform="translate(-7.734 -3.094)" fill="#374957"/>
    <path id="Tracé_3855" data-name="Tracé 3855" d="M5.613,5.524a.613.613,0,0,0,.434-.18l2.2-2.2a.629.629,0,0,1,.867,0l1.332,1.332a1.84,1.84,0,0,0,2.6,0l3.426-3.426a.613.613,0,0,0-.867-.867L12.18,3.61a.613.613,0,0,1-.867,0L9.98,2.278a1.84,1.84,0,0,0-2.6,0l-2.2,2.2a.613.613,0,0,0,.434,1.047Z" transform="translate(-1.934 -0.005)" fill="#374957"/>
  </g>
</svg>
