<svg xmlns="http://www.w3.org/2000/svg" width="15.173" height="18.207" viewBox="0 0 15.173 18.207">
  <g id="supprimer" transform="translate(-1.517)">
    <path id="Tracé_3892" data-name="Tracé 3892" d="M16.414,3.035H14.062A3.8,3.8,0,0,0,10.345,0H8.828A3.8,3.8,0,0,0,5.11,3.035H2.759a.759.759,0,1,0,0,1.517h.759v9.862A3.8,3.8,0,0,0,7.31,18.207h4.552a3.8,3.8,0,0,0,3.793-3.793V4.552h.759a.759.759,0,0,0,0-1.517ZM8.828,1.517h1.517a2.28,2.28,0,0,1,2.146,1.517H6.681A2.28,2.28,0,0,1,8.828,1.517Zm5.31,12.9a2.276,2.276,0,0,1-2.276,2.276H7.31a2.276,2.276,0,0,1-2.276-2.276V4.552h9.1Z" transform="translate(-0.483)" fill="#374957"/>
    <path id="Tracé_3893" data-name="Tracé 3893" d="M9.759,16.068a.759.759,0,0,0,.759-.759V10.758a.759.759,0,0,0-1.517,0V15.31a.759.759,0,0,0,.759.759Z" transform="translate(-2.172 -2.413)" fill="#374957"/>
    <path id="Tracé_3894" data-name="Tracé 3894" d="M13.759,16.068a.759.759,0,0,0,.759-.759V10.758a.759.759,0,0,0-1.517,0V15.31a.759.759,0,0,0,.759.759Z" transform="translate(-3.138 -2.413)" fill="#374957"/>
  </g>
</svg>
