<svg xmlns="http://www.w3.org/2000/svg" width="23.63" height="31.516" viewBox="0 0 23.63 31.516">
  <path id="Tracé_3869" data-name="Tracé 3869" d="M16.751,6.563a1.313,1.313,0,0,1-1.313,1.313h-5.25a1.313,1.313,0,1,1,0-2.625h5.25a1.313,1.313,0,0,1,1.313,1.313Zm7.875.945V21.233a6.562,6.562,0,0,1-1.74,4.449l1.641,4.008a1.313,1.313,0,0,1-2.431.994l-1.407-3.456a17.814,17.814,0,0,1-7.875,1.647,17.827,17.827,0,0,1-7.875-1.647L3.53,30.684A1.313,1.313,0,1,1,1.1,29.69L2.74,25.682A6.563,6.563,0,0,1,1,21.233V7.508A6.539,6.539,0,0,1,5.562,1.255,24.107,24.107,0,0,1,12.814,0a24.057,24.057,0,0,1,7.252,1.256,6.535,6.535,0,0,1,4.561,6.252ZM22,15.4c-2.038,3.056-5.184,5.6-9.188,5.6s-7.149-2.54-9.188-5.6v5.828a3.882,3.882,0,0,0,1.985,3.422,14.871,14.871,0,0,0,7.2,1.6,14.859,14.859,0,0,0,7.2-1.6A3.881,3.881,0,0,0,22,21.233Zm0-7.53V7.508a3.921,3.921,0,0,0-2.734-3.751,21.477,21.477,0,0,0-6.454-1.131A21.525,21.525,0,0,0,6.36,3.755,3.924,3.924,0,0,0,3.626,7.508v.368c0,3.206,3.472,10.5,9.188,10.5S22,11.082,22,7.875ZM12.814,22.313a1.313,1.313,0,1,0,.928.384A1.312,1.312,0,0,0,12.814,22.313Z" transform="translate(-0.996)" fill="#28c66f"/>
</svg>
