<svg id="transitaire_gris" xmlns="http://www.w3.org/2000/svg" width="33" height="33" viewBox="0 0 33 33">
  <g id="Groupe_1564" data-name="Groupe 1564" opacity="0.1">
    <g id="Groupe_1563" data-name="Groupe 1563">
      <rect id="Rectangle_721" data-name="Rectangle 721" width="33" height="33" rx="10" fill="#374957"/>
    </g>
  </g>
  <path id="Tracé_3873" data-name="Tracé 3873" d="M7.055,5.879A1.764,1.764,0,1,1,8.3,5.362,1.764,1.764,0,0,1,7.055,5.879ZM5.272,8.965a1.871,1.871,0,0,1,3.564,0,.588.588,0,1,0,1.139-.294,3.047,3.047,0,0,0-5.842,0,.588.588,0,1,0,1.138.294ZM7.06,13.913a1.182,1.182,0,0,1-.787-.3l-2.2-1.855H2.352A2.352,2.352,0,0,1,0,9.406V2.352A2.352,2.352,0,0,1,2.352,0h9.406A2.352,2.352,0,0,1,14.11,2.352V9.406a2.352,2.352,0,0,1-2.352,2.352H10.081l-2.262,1.87A1.141,1.141,0,0,1,7.06,13.913ZM2.352,1.176A1.176,1.176,0,0,0,1.176,2.352V9.406a1.176,1.176,0,0,0,1.176,1.176H4.285a.588.588,0,0,1,.379.138l2.379,2L9.5,10.717a.588.588,0,0,1,.374-.135h1.888a1.176,1.176,0,0,0,1.176-1.176V2.352a1.176,1.176,0,0,0-1.176-1.176Z" transform="translate(9.445 9.307)" fill="#374957"/>
</svg>
