<svg xmlns="http://www.w3.org/2000/svg" width="15.75" height="21.006" viewBox="0 0 15.75 21.006">
  <path id="Tracé_3877" data-name="Tracé 3877" d="M11.5,4.374a.875.875,0,0,1-.875.875h-3.5a.875.875,0,1,1,0-1.75h3.5a.875.875,0,0,1,.875.875ZM16.746,5v9.148a4.374,4.374,0,0,1-1.16,2.966l1.094,2.672a.875.875,0,0,1-1.62.662l-.938-2.3a11.873,11.873,0,0,1-5.249,1.1,11.882,11.882,0,0,1-5.249-1.1l-.939,2.3a.875.875,0,1,1-1.619-.662l1.093-2.672A4.374,4.374,0,0,1,1,14.152V5A4.358,4.358,0,0,1,4.04.836,16.068,16.068,0,0,1,8.873,0a16.034,16.034,0,0,1,4.833.837A4.356,4.356,0,0,1,16.746,5ZM15,10.268A7.533,7.533,0,0,1,8.873,14a7.533,7.533,0,0,1-6.124-3.729v3.884a2.588,2.588,0,0,0,1.323,2.281,9.912,9.912,0,0,0,4.8,1.064,9.9,9.9,0,0,0,4.8-1.064A2.587,2.587,0,0,0,15,14.152Zm0-5.019V5a2.614,2.614,0,0,0-1.822-2.5,14.315,14.315,0,0,0-4.3-.754,14.347,14.347,0,0,0-4.3.753A2.616,2.616,0,0,0,2.749,5v.245c0,2.137,2.314,7,6.124,7S15,7.386,15,5.249ZM8.873,14.872a.875.875,0,1,0,.619.256A.875.875,0,0,0,8.873,14.872Z" transform="translate(-0.996)" fill="#fff"/>
</svg>
