<svg id="update-gris" xmlns="http://www.w3.org/2000/svg" width="17.104" height="17.104" viewBox="0 0 17.104 17.104">
  <path id="Tracé_3901" data-name="Tracé 3901" d="M14.732.676,6.044,9.365A3.539,3.539,0,0,0,5,11.884v.957a.713.713,0,0,0,.713.713H6.67A3.539,3.539,0,0,0,9.189,12.51l8.689-8.689a2.227,2.227,0,0,0,0-3.146,2.276,2.276,0,0,0-3.146,0ZM16.87,2.814,8.181,11.5a2.152,2.152,0,0,1-1.512.626H6.426v-.244a2.152,2.152,0,0,1,.626-1.512L15.74,1.684a.818.818,0,0,1,1.13,0,.8.8,0,0,1,0,1.13Z" transform="translate(-1.437 -0.013)" fill="#374957"/>
  <path id="Tracé_3902" data-name="Tracé 3902" d="M16.391,6.4a.713.713,0,0,0-.713.713V10.69H12.828a2.138,2.138,0,0,0-2.138,2.138v2.851H3.563A2.138,2.138,0,0,1,1.425,13.54V3.563A2.138,2.138,0,0,1,3.563,1.425h6.444a.713.713,0,0,0,0-1.425H3.563A3.568,3.568,0,0,0,0,3.563V13.54A3.568,3.568,0,0,0,3.563,17.1h8.084a3.54,3.54,0,0,0,2.52-1.043l1.893-1.894A3.541,3.541,0,0,0,17.1,11.647V7.112a.713.713,0,0,0-.713-.713Zm-3.232,8.654a2.12,2.12,0,0,1-1.044.57v-2.8a.713.713,0,0,1,.713-.713h2.8a2.15,2.15,0,0,1-.57,1.043Z" transform="translate(0 0)" fill="#374957"/>
</svg>
