<svg xmlns="http://www.w3.org/2000/svg" width="16.637" height="16.46" viewBox="0 0 16.637 16.46">
  <g id="Groupe_2363" data-name="Groupe 2363" transform="translate(0 16.46) rotate(-90)">
    <path id="Tracé_3865" data-name="Tracé 3865" d="M7.955,10.4a.693.693,0,0,0-.693.693v2.08a2.08,2.08,0,0,1-2.08,2.08H3.466a2.08,2.08,0,0,1-2.08-2.08V3.466a2.08,2.08,0,0,1,2.08-2.08H5.183a2.08,2.08,0,0,1,2.08,2.08v2.08a.693.693,0,0,0,1.386,0V3.466A3.47,3.47,0,0,0,5.183,0H3.466A3.47,3.47,0,0,0,0,3.466v9.705a3.47,3.47,0,0,0,3.466,3.466H5.183a3.47,3.47,0,0,0,3.466-3.466v-2.08a.693.693,0,0,0-.693-.693Z" fill="#fff"/>
    <path id="Tracé_3866" data-name="Tracé 3866" d="M17.386,8.379,14.207,5.2a.693.693,0,1,0-.98.98l2.955,2.955L5.693,9.156a.693.693,0,0,0,0,1.386l10.529-.021-3,3a.693.693,0,1,0,.98.98l3.179-3.179a2.08,2.08,0,0,0,0-2.941Z" transform="translate(-1.534 -1.53)" fill="#fff"/>
  </g>
</svg>
